{
  "accessors": [
    {
      "bufferView": 2,
      "componentType": 5126,
      "count": 643,
      "max": [
        1,
        0.20574800670146942,
        0.89833801984786987
      ],
      "min": [
        -0.79241198301315308,
        -0.20574800670146942,
        -0.89833801984786987
      ],
      "type": "VEC3"
    },
    {
      "bufferView": 2,
      "byteOffset": 7716,
      "componentType": 5126,
      "count": 643,
      "max": [
        1,
        1,
        1
      ],
      "min": [
        -1,
        -1,
        -1
      ],
      "type": "VEC3"
    },
    {
      "bufferView": 3,
      "componentType": 5126,
      "count": 643,
      "max": [
        0.99466001987457275,
        1,
        0.95799899101257324,
        1
      ],
      "min": [
        -0.99034601449966431,
        -1,
        -0.86182498931884766,
        1
      ],
      "type": "VEC4"
    },
    {
      "bufferView": 1,
      "componentType": 5126,
      "count": 643,
      "max": [
        1,
        1
      ],
      "min": [
        0,
        0
      ],
      "type": "VEC2"
    },
    {
      "bufferView": 0,
      "componentType": 5125,
      "count": 2688,
      "max": [
        642
      ],
      "min": [
        0
      ],
      "type": "SCALAR"
    },
    {
      "bufferView": 2,
      "byteOffset": 15432,
      "componentType": 5126,
      "count": 282,
      "max": [
        -0.78374797105789185,
        0.044012300670146942,
        0.062368400394916534
      ],
      "min": [
        -0.86674302816390991,
        -0.044012300670146942,
        -0.062369398772716522
      ],
      "type": "VEC3"
    },
    {
      "bufferView": 2,
      "byteOffset": 18816,
      "componentType": 5126,
      "count": 282,
      "max": [
        0.77708882093429565,
        1,
        1
      ],
      "min": [
        -1,
        -1,
        -1
      ],
      "type": "VEC3"
    },
    {
      "bufferView": 3,
      "byteOffset": 10288,
      "componentType": 5126,
      "count": 282,
      "max": [
        0.45512300729751587,
        0.99990600347518921,
        1,
        1
      ],
      "min": [
        -0.4266040027141571,
        -0.99990600347518921,
        -1,
        1
      ],
      "type": "VEC4"
    },
    {
      "bufferView": 1,
      "byteOffset": 5144,
      "componentType": 5126,
      "count": 282,
      "max": [
        0.83859997987747192,
        0.99989998340606689
      ],
      "min": [
        9.9999997473787516e-05,
        9.9999997473787516e-05
      ],
      "type": "VEC2"
    },
    {
      "bufferView": 0,
      "byteOffset": 10752,
      "componentType": 5125,
      "count": 1332,
      "max": [
        281
      ],
      "min": [
        0
      ],
      "type": "SCALAR"
    },
    {
      "bufferView": 2,
      "byteOffset": 22200,
      "componentType": 5126,
      "count": 150,
      "max": [
        -0.80988699197769165,
        0.008715679869055748,
        0.098865203559398651
      ],
      "min": [
        -1,
        -0.0089779896661639214,
        -0.098769202828407288
      ],
      "type": "VEC3"
    },
    {
      "bufferView": 2,
      "byteOffset": 24000,
      "componentType": 5126,
      "count": 150,
      "max": [
        0.9342958927154541,
        0.97674494981765747,
        1
      ],
      "min": [
        -1,
        -0.97674494981765747,
        -1
      ],
      "type": "VEC3"
    },
    {
      "bufferView": 3,
      "byteOffset": 14800,
      "componentType": 5126,
      "count": 150,
      "max": [
        0.99999797344207764,
        0.046978700906038284,
        0.83990299701690674,
        1
      ],
      "min": [
        -1,
        -0.057397600263357162,
        -1,
        1
      ],
      "type": "VEC4"
    },
    {
      "bufferView": 1,
      "byteOffset": 7400,
      "componentType": 5126,
      "count": 150,
      "max": [
        1,
        0.11980000138282776
      ],
      "min": [
        0,
        0
      ],
      "type": "VEC2"
    },
    {
      "bufferView": 0,
      "byteOffset": 16080,
      "componentType": 5125,
      "count": 756,
      "max": [
        149
      ],
      "min": [
        0
      ],
      "type": "SCALAR"
    },
    {
      "bufferView": 2,
      "byteOffset": 25800,
      "componentType": 5126,
      "count": 265,
      "max": [
        0.77799797058105469,
        0.10407199710607529,
        0.67211198806762695
      ],
      "min": [
        -0.5662270188331604,
        0.079414002597332001,
        -0.67211198806762695
      ],
      "type": "VEC3"
    },
    {
      "bufferView": 2,
      "byteOffset": 28980,
      "componentType": 5126,
      "count": 265,
      "max": [
        0.72789168357849121,
        1,
        0.72789168357849121
      ],
      "min": [
        -0.72789168357849121,
        -0.68570315837860107,
        -0.72789168357849121
      ],
      "type": "VEC3"
    },
    {
      "bufferView": 3,
      "byteOffset": 17200,
      "componentType": 5126,
      "count": 265,
      "max": [
        0.68570798635482788,
        0.72788697481155396,
        0.99768298864364624,
        1
      ],
      "min": [
        -0.68570798635482788,
        -0.72788697481155396,
        -0.93898302316665649,
        1
      ],
      "type": "VEC4"
    },
    {
      "bufferView": 1,
      "byteOffset": 8600,
      "componentType": 5126,
      "count": 265,
      "max": [
        1,
        1
      ],
      "min": [
        0,
        0
      ],
      "type": "VEC2"
    },
    {
      "bufferView": 0,
      "byteOffset": 19104,
      "componentType": 5125,
      "count": 1146,
      "max": [
        264
      ],
      "min": [
        0
      ],
      "type": "SCALAR"
    },
    {
      "bufferView": 2,
      "byteOffset": 32160,
      "componentType": 5126,
      "count": 913,
      "max": [
        0.2622700035572052,
        0.0045914100483059883,
        0.47672200202941895
      ],
      "min": [
        -0.050161000341176987,
        -0.0045914100483059883,
        -0.48435699939727783
      ],
      "type": "VEC3"
    },
    {
      "bufferView": 2,
      "byteOffset": 43116,
      "componentType": 5126,
      "count": 913,
      "max": [
        1,
        1,
        1
      ],
      "min": [
        -1,
        -1,
        -1
      ],
      "type": "VEC3"
    },
    {
      "bufferView": 3,
      "byteOffset": 21440,
      "componentType": 5126,
      "count": 913,
      "max": [
        1,
        1,
        1,
        -1
      ],
      "min": [
        -0.99994701147079468,
        -0.99999898672103882,
        -0.99964302778244019,
        -1
      ],
      "type": "VEC4"
    },
    {
      "bufferView": 1,
      "byteOffset": 10720,
      "componentType": 5126,
      "count": 913,
      "max": [
        1,
        1
      ],
      "min": [
        0,
        0
      ],
      "type": "VEC2"
    },
    {
      "bufferView": 0,
      "byteOffset": 23688,
      "componentType": 5125,
      "count": 3432,
      "max": [
        912
      ],
      "min": [
        0
      ],
      "type": "SCALAR"
    },
    {
      "bufferView": 2,
      "byteOffset": 54072,
      "componentType": 5126,
      "count": 109,
      "max": [
        0.15726399421691895,
        0.069194503128528595,
        0.051337700337171555
      ],
      "min": [
        0.054588001221418381,
        -0.1243169978260994,
        -0.051338698714971542
      ],
      "type": "VEC3"
    },
    {
      "bufferView": 2,
      "byteOffset": 55380,
      "componentType": 5126,
      "count": 109,
      "max": [
        1,
        1,
        1
      ],
      "min": [
        -1,
        -0.66574001312255859,
        -1
      ],
      "type": "VEC3"
    },
    {
      "bufferView": 3,
      "byteOffset": 36048,
      "componentType": 5126,
      "count": 109,
      "max": [
        1,
        0.71489900350570679,
        0.70710402727127075,
        1
      ],
      "min": [
        -1,
        -0.71494698524475098,
        -1,
        1
      ],
      "type": "VEC4"
    },
    {
      "bufferView": 1,
      "byteOffset": 18024,
      "componentType": 5126,
      "count": 109,
      "max": [
        1,
        1
      ],
      "min": [
        0,
        0
      ],
      "type": "VEC2"
    },
    {
      "bufferView": 0,
      "byteOffset": 37416,
      "componentType": 5125,
      "count": 378,
      "max": [
        108
      ],
      "min": [
        0
      ],
      "type": "SCALAR"
    }
  ],
  "asset": {
    "extras": {
      "author": "Artem Goyko (https://sketchfab.com/Artem.Goyko)",
      "license": "CC-BY-4.0 (http://creativecommons.org/licenses/by/4.0/)",
      "source": "https://sketchfab.com/models/47d5271ad114418fbebc12b1ac2bdaf8",
      "title": "Compass"
    },
    "generator": "Sketchfab-3.19.5",
    "version": "2.0"
  },
  "bufferViews": [
    {
      "buffer": 0,
      "byteLength": 38928,
      "byteOffset": 0,
      "name": "floatBufferViews",
      "target": 34963
    },
    {
      "buffer": 0,
      "byteLength": 18896,
      "byteOffset": 38928,
      "byteStride": 8,
      "name": "floatBufferViews",
      "target": 34962
    },
    {
      "buffer": 0,
      "byteLength": 56688,
      "byteOffset": 57824,
      "byteStride": 12,
      "name": "floatBufferViews",
      "target": 34962
    },
    {
      "buffer": 0,
      "byteLength": 37792,
      "byteOffset": 114512,
      "byteStride": 16,
      "name": "floatBufferViews",
      "target": 34962
    }
  ],
  "buffers": [
    {
      "byteLength": 152304,
      "uri": "sceneC.bin"
    }
  ],
  "images": [
    {
      "uri": "texturesC/strelka_metallicRoughness.png"
    },
    {
      "uri": "texturesC/strelka_normal.jpeg"
    },
    {
      "uri": "texturesC/strelka_baseColor.jpeg"
    },
    {
      "uri": "texturesC/steklo_001_baseColor.png"
    },
    {
      "uri": "texturesC/steklo_001_metallicRoughness.png"
    },
    {
      "uri": "texturesC/steklo_001_normal.jpeg"
    },
    {
      "uri": "texturesC/kreplenye1_metallicRoughness.png"
    },
    {
      "uri": "texturesC/kreplenye1_normal.jpeg"
    },
    {
      "uri": "texturesC/kreplenye1_baseColor.jpeg"
    },
    {
      "uri": "texturesC/kreplenye2_metallicRoughness.png"
    },
    {
      "uri": "texturesC/kreplenye2_normal.jpeg"
    },
    {
      "uri": "texturesC/kreplenye2_baseColor.jpeg"
    },
    {
      "uri": "texturesC/korpus_metallicRoughness.png"
    },
    {
      "uri": "texturesC/korpus_normal.jpeg"
    },
    {
      "uri": "texturesC/korpus_baseColor.jpeg"
    },
    {
      "uri": "texturesC/celindr_metallicRoughness.png"
    },
    {
      "uri": "texturesC/celindr_normal.jpeg"
    },
    {
      "uri": "texturesC/celindr_baseColor.jpeg"
    }
  ],
  "materials": [
    {
      "doubleSided": true,
      "emissiveFactor": [
        0,
        0,
        0
      ],
      "name": "celindr",
      "normalTexture": {
        "index": 16,
        "scale": 1,
        "texCoord": 0
      },
      "occlusionTexture": {
        "index": 15,
        "strength": 1,
        "texCoord": 0
      },
      "pbrMetallicRoughness": {
        "baseColorFactor": [
          1,
          1,
          1,
          1
        ],
        "baseColorTexture": {
          "index": 17,
          "texCoord": 0
        },
        "metallicFactor": 1,
        "metallicRoughnessTexture": {
          "index": 15,
          "texCoord": 0
        },
        "roughnessFactor": 1
      }
    },
    {
      "doubleSided": true,
      "emissiveFactor": [
        0,
        0,
        0
      ],
      "name": "strelka",
      "normalTexture": {
        "index": 1,
        "scale": 1,
        "texCoord": 0
      },
      "occlusionTexture": {
        "index": 0,
        "strength": 1,
        "texCoord": 0
      },
      "pbrMetallicRoughness": {
        "baseColorFactor": [
          1,
          1,
          1,
          1
        ],
        "baseColorTexture": {
          "index": 2,
          "texCoord": 0
        },
        "metallicFactor": 1,
        "metallicRoughnessTexture": {
          "index": 0,
          "texCoord": 0
        },
        "roughnessFactor": 1
      }
    },
    {
      "alphaMode": "BLEND",
      "doubleSided": true,
      "emissiveFactor": [
        0,
        0,
        0
      ],
      "name": "steklo_001",
      "normalTexture": {
        "index": 5,
        "scale": 1,
        "texCoord": 0
      },
      "occlusionTexture": {
        "index": 4,
        "strength": 1,
        "texCoord": 0
      },
      "pbrMetallicRoughness": {
        "baseColorFactor": [
          1,
          1,
          1,
          1
        ],
        "baseColorTexture": {
          "index": 3,
          "texCoord": 0
        },
        "metallicFactor": 1,
        "metallicRoughnessTexture": {
          "index": 4,
          "texCoord": 0
        },
        "roughnessFactor": 1
      }
    },
    {
      "doubleSided": true,
      "emissiveFactor": [
        0,
        0,
        0
      ],
      "name": "kreplenye2",
      "normalTexture": {
        "index": 10,
        "scale": 1,
        "texCoord": 0
      },
      "occlusionTexture": {
        "index": 9,
        "strength": 1,
        "texCoord": 0
      },
      "pbrMetallicRoughness": {
        "baseColorFactor": [
          1,
          1,
          1,
          1
        ],
        "baseColorTexture": {
          "index": 11,
          "texCoord": 0
        },
        "metallicFactor": 1,
        "metallicRoughnessTexture": {
          "index": 9,
          "texCoord": 0
        },
        "roughnessFactor": 1
      }
    },
    {
      "doubleSided": true,
      "emissiveFactor": [
        0,
        0,
        0
      ],
      "name": "kreplenye1",
      "normalTexture": {
        "index": 7,
        "scale": 1,
        "texCoord": 0
      },
      "occlusionTexture": {
        "index": 6,
        "strength": 1,
        "texCoord": 0
      },
      "pbrMetallicRoughness": {
        "baseColorFactor": [
          1,
          1,
          1,
          1
        ],
        "baseColorTexture": {
          "index": 8,
          "texCoord": 0
        },
        "metallicFactor": 1,
        "metallicRoughnessTexture": {
          "index": 6,
          "texCoord": 0
        },
        "roughnessFactor": 1
      }
    },
    {
      "doubleSided": true,
      "emissiveFactor": [
        0,
        0,
        0
      ],
      "name": "korpus",
      "normalTexture": {
        "index": 13,
        "scale": 1,
        "texCoord": 0
      },
      "occlusionTexture": {
        "index": 12,
        "strength": 1,
        "texCoord": 0
      },
      "pbrMetallicRoughness": {
        "baseColorFactor": [
          1,
          1,
          1,
          1
        ],
        "baseColorTexture": {
          "index": 14,
          "texCoord": 0
        },
        "metallicFactor": 1,
        "metallicRoughnessTexture": {
          "index": 12,
          "texCoord": 0
        },
        "roughnessFactor": 1
      }
    }
  ],
  "meshes": [
    {
      "name": "defaultMaterial",
      "primitives": [
        {
          "attributes": {
            "NORMAL": 1,
            "POSITION": 0,
            "TANGENT": 2,
            "TEXCOORD_0": 3
          },
          "indices": 4,
          "material": 5,
          "mode": 4
        }
      ]
    },
    {
      "name": "defaultMaterial",
      "primitives": [
        {
          "attributes": {
            "NORMAL": 6,
            "POSITION": 5,
            "TANGENT": 7,
            "TEXCOORD_0": 8
          },
          "indices": 9,
          "material": 4,
          "mode": 4
        }
      ]
    },
    {
      "name": "defaultMaterial",
      "primitives": [
        {
          "attributes": {
            "NORMAL": 11,
            "POSITION": 10,
            "TANGENT": 12,
            "TEXCOORD_0": 13
          },
          "indices": 14,
          "material": 3,
          "mode": 4
        }
      ]
    },
    {
      "name": "defaultMaterial",
      "primitives": [
        {
          "attributes": {
            "NORMAL": 16,
            "POSITION": 15,
            "TANGENT": 17,
            "TEXCOORD_0": 18
          },
          "indices": 19,
          "material": 2,
          "mode": 4
        }
      ]
    },
    {
      "name": "defaultMaterial",
      "primitives": [
        {
          "attributes": {
            "NORMAL": 21,
            "POSITION": 20,
            "TANGENT": 22,
            "TEXCOORD_0": 23
          },
          "indices": 24,
          "material": 1,
          "mode": 4
        }
      ]
    },
    {
      "name": "defaultMaterial",
      "primitives": [
        {
          "attributes": {
            "NORMAL": 26,
            "POSITION": 25,
            "TANGENT": 27,
            "TEXCOORD_0": 28
          },
          "indices": 29,
          "material": 0,
          "mode": 4
        }
      ]
    }
  ],
  "nodes": [
    {
      "children": [
        1
      ],
      "name": "RootNode (gltf orientation matrix)",
      "rotation": [
        -0.70710678118654746,
        -0,
        -0,
        0.70710678118654757
      ]
    },
    {
      "children": [
        2
      ],
      "name": "RootNode (model correction matrix)"
    },
    {
      "children": [
        3,
        5,
        7,
        9,
        11,
        13
      ],
      "matrix": [
        1,
        0,
        0,
        0,
        0,
        -4.3711390063094768e-08,
        0.999999999999999,
        0,
        0,
        -0.999999999999999,
        -4.3711390063094768e-08,
        0,
        0,
        0,
        0,
        1
      ],
      "name": "Collada visual scene group"
    },
    {
      "children": [
        4
      ],
      "name": "Sphere"
    },
    {
      "mesh": 0,
      "name": "defaultMaterial"
    },
    {
      "children": [
        6
      ],
      "name": "Circle_Circle.003"
    },
    {
      "mesh": 1,
      "name": "defaultMaterial"
    },
    {
      "children": [
        8
      ],
      "name": "Torus.001"
    },
    {
      "mesh": 2,
      "name": "defaultMaterial"
    },
    {
      "children": [
        10
      ],
      "name": "Sphere.001"
    },
    {
      "mesh": 3,
      "name": "defaultMaterial"
    },
    {
      "children": [
        12
      ],
      "name": "Cube_Cube.001"
    },
    {
      "mesh": 4,
      "name": "defaultMaterial"
    },
    {
      "children": [
        14
      ],
      "name": "Cylinder"
    },
    {
      "mesh": 5,
      "name": "defaultMaterial"
    }
  ],
  "samplers": [
    {
      "magFilter": 9729,
      "minFilter": 9987,
      "wrapS": 10497,
      "wrapT": 10497
    }
  ],
  "scene": 0,
  "scenes": [
    {
      "name": "OSG_Scene",
      "nodes": [
        0
      ]
    }
  ],
  "textures": [
    {
      "sampler": 0,
      "source": 0
    },
    {
      "sampler": 0,
      "source": 1
    },
    {
      "sampler": 0,
      "source": 2
    },
    {
      "sampler": 0,
      "source": 3
    },
    {
      "sampler": 0,
      "source": 4
    },
    {
      "sampler": 0,
      "source": 5
    },
    {
      "sampler": 0,
      "source": 6
    },
    {
      "sampler": 0,
      "source": 7
    },
    {
      "sampler": 0,
      "source": 8
    },
    {
      "sampler": 0,
      "source": 9
    },
    {
      "sampler": 0,
      "source": 10
    },
    {
      "sampler": 0,
      "source": 11
    },
    {
      "sampler": 0,
      "source": 12
    },
    {
      "sampler": 0,
      "source": 13
    },
    {
      "sampler": 0,
      "source": 14
    },
    {
      "sampler": 0,
      "source": 15
    },
    {
      "sampler": 0,
      "source": 16
    },
    {
      "sampler": 0,
      "source": 17
    }
  ]
}

